<?xml version="1.0" standalone="no"?>
<!DOCTYPE svg PUBLIC "-//W3C//DTD SVG 20010904//EN"
 "http://www.w3.org/TR/2001/REC-SVG-20010904/DTD/svg10.dtd">
<svg version="1.0" xmlns="http://www.w3.org/2000/svg"
 width="48.000000pt" height="48.000000pt" viewBox="0 0 48.000000 48.000000"
 preserveAspectRatio="xMidYMid meet">

<g transform="translate(0.000000,48.000000) scale(0.100000,-0.100000)"
fill="#000000" stroke="none">
<path d="M0 240 l0 -240 130 0 130 0 0 86 0 87 -75 138 c-41 76 -75 141 -75
144 0 3 13 5 30 5 27 0 33 -8 88 -111 l59 -110 25 43 c14 24 40 71 57 106 33
65 45 76 80 70 19 -3 14 -16 -54 -138 l-74 -135 -1 -92 0 -93 80 0 80 0 0 240
0 240 -240 0 -240 0 0 -240z"/>
</g>
</svg>
